<svg width="22" height="20" viewBox="0 0 22 20" fill="none" xmlns="http://www.w3.org/2000/svg">
<path d="M6.06093 13.2629C2.90048 13.2629 0.329346 10.6917 0.329346 7.53135C0.329346 6.11062 0.853063 4.74756 1.804 3.69337C2.06649 3.40238 2.51528 3.37921 2.80632 3.64178C3.09735 3.90435 3.12047 4.35311 2.8579 4.64414C2.14266 5.4371 1.7487 6.46246 1.7487 7.53143C1.7487 9.90919 3.68317 11.8437 6.06093 11.8437C6.45289 11.8437 6.77063 12.1614 6.77063 12.5534C6.77063 12.9452 6.45289 13.2629 6.06093 13.2629Z" fill="#FF949B"/>
<path opacity="0.1" d="M6.06096 11.8436C5.49601 11.8436 4.95622 11.7342 4.46134 11.5358C4.01501 11.7911 3.63812 12.1534 3.36566 12.5884C4.1696 13.0186 5.08723 13.263 6.061 13.263C6.45295 13.263 6.7707 12.9452 6.7707 12.5533C6.77066 12.1613 6.45291 11.8436 6.06096 11.8436Z" fill="black"/>
<path d="M13.3132 19.6707C12.6738 19.6707 12.1555 19.1523 12.1555 18.513V14.2366H14.4709V18.5129C14.4708 19.1523 13.9526 19.6707 13.3132 19.6707Z" fill="#FF949B"/>
<path d="M14.4708 17.6635C13.6164 17.6635 12.9237 16.9709 12.9237 16.1165C12.9237 15.2621 13.6164 14.5694 14.4708 14.5694V17.6635Z" fill="#FF314F"/>
<path opacity="0.08" d="M13.3132 19.6707C12.6738 19.6707 12.1555 19.1523 12.1555 18.513V14.2366H14.4709V18.5129C14.4708 19.1523 13.9526 19.6707 13.3132 19.6707Z" fill="black"/>
<path d="M12.0011 11.1265H7.32826C5.61061 11.1265 4.21814 12.5189 4.21814 14.2366V18.5129C4.21814 19.1523 4.73647 19.6706 5.37584 19.6706C6.01521 19.6706 6.53355 19.1523 6.53355 18.5129V17.2438C6.78727 17.3107 7.05355 17.3467 7.3283 17.3467H8.8045V18.5129C8.8045 19.1523 9.32284 19.6706 9.96221 19.6706C10.6016 19.6706 11.1199 19.1523 11.1199 18.5129V17.3451C13.069 17.311 14.6388 15.7214 14.6388 13.7641C14.6388 12.3074 13.4578 11.1265 12.0011 11.1265Z" fill="#FF949B"/>
<path d="M4.23241 13.942C4.22327 14.0391 4.21814 14.1373 4.21814 14.2366V16.7826C5.00267 16.7826 5.63862 16.1467 5.63862 15.3621C5.63862 14.5824 5.01031 13.9497 4.23241 13.942Z" fill="#FF314F"/>
<path opacity="0.08" d="M12.0011 11.1265H7.3283C6.5032 11.1265 5.75377 11.4483 5.19708 11.9726C6.09113 13.586 7.90419 14.7113 10.0323 14.7113H14.5113C14.5938 14.4095 14.6387 14.0922 14.6387 13.7642C14.6388 12.3074 13.4579 11.1265 12.0011 11.1265Z" fill="black"/>
<path d="M19.1413 0.377863L19.141 0.377946C17.7888 0.722695 16.4701 1.1871 15.2 1.76483C14.4952 1.57693 13.7522 1.47638 12.9864 1.47638C12.2206 1.47638 11.4775 1.57693 10.7727 1.76483C9.5027 1.18706 8.18397 0.722695 6.83173 0.377946L6.83136 0.377863C5.83626 0.124143 4.88053 0.908216 4.93483 1.9337C5.01037 3.35914 5.21534 4.77466 5.54673 6.16304C5.30871 6.72211 5.14084 7.31586 5.05453 7.93599C4.63607 10.9435 7.16559 13.6073 10.4401 13.6073H15.5326C18.807 13.6073 21.3366 10.9435 20.9181 7.93599C20.8319 7.31595 20.664 6.72215 20.4259 6.16308C20.7573 4.7747 20.9622 3.35914 21.0378 1.93374C21.0922 0.908258 20.1364 0.124143 19.1413 0.377863Z" fill="#FF949B"/>
<path d="M11.8422 8.70142V10.9727C11.8422 11.6046 12.3544 12.1168 12.9863 12.1168C13.6182 12.1168 14.1304 11.6045 14.1304 10.9727V8.70142H11.8422Z" fill="#FF293A"/>
<path opacity="0.1" d="M12.9863 11.0672C12.8044 11.0672 12.657 10.9198 12.657 10.7379V8.85938C12.657 8.67749 12.8044 8.53003 12.9863 8.53003C13.1683 8.53003 13.3157 8.67749 13.3157 8.85938V10.7379C13.3156 10.9198 13.1682 11.0672 12.9863 11.0672Z" fill="black"/>
<path d="M14.9014 10.3198C13.4171 10.3198 12.9863 9.26187 12.9863 8.80903C12.9863 9.26187 12.5556 10.3198 11.0713 10.3198L10.153 7.66852H15.8197L14.9014 10.3198Z" fill="#FF949B"/>
<path d="M18.6549 2.04267L18.6548 2.04271C18.0314 2.20169 17.4238 2.41743 16.8399 2.68742C16.5656 2.81422 16.4901 3.16907 16.6891 3.39649C17.223 4.00657 17.8539 4.52419 18.5565 4.9285C18.8184 5.07925 19.1517 4.93593 19.2225 4.6421L19.2225 4.64189C19.3731 4.01646 19.4661 3.37851 19.5001 2.73605C19.5244 2.27907 19.0984 1.9296 18.6549 2.04267Z" fill="#FF646F"/>
<path d="M6.83167 0.377997L6.8313 0.377913C6.2062 0.218519 5.5968 0.468817 5.24341 0.931055C5.48849 2.04301 6.47916 2.87517 7.66474 2.87517C8.67608 2.87517 9.54542 2.26952 9.9314 1.40143C8.92341 0.98932 7.88775 0.647201 6.83167 0.377997Z" fill="#FF314F"/>
<path d="M6.47254 2.73616C6.50656 3.37858 6.59955 4.01653 6.75014 4.642L6.75018 4.64217C6.82096 4.93596 7.15419 5.07928 7.41613 4.92857C8.11874 4.52426 8.74972 4.0066 9.28354 3.39657C9.48254 3.16914 9.40712 2.8143 9.13278 2.6875C8.54884 2.41754 7.94135 2.20172 7.31793 2.04278L7.31776 2.04274C6.8743 1.92964 6.44833 2.2791 6.47254 2.73616Z" fill="#FF646F"/>
<path d="M14.1316 8.34691L13.865 8.6644C13.4065 9.21049 12.5661 9.21049 12.1077 8.6644L11.8411 8.34691C11.7037 8.18334 11.8201 7.93384 12.0336 7.93384H13.939C14.1527 7.93388 14.2689 8.18334 14.1316 8.34691Z" fill="#FF293A"/>
<path d="M14.9014 9.99048C14.0648 9.99048 13.6681 9.62074 13.4833 9.31706C13.727 9.23008 13.9464 9.07966 14.1172 8.87623L14.3838 8.55873C14.5305 8.38398 14.5618 8.14683 14.4654 7.93998C14.369 7.73313 14.1672 7.60458 13.939 7.60458H12.0336C11.8053 7.60458 11.6037 7.73309 11.5073 7.93998C11.4108 8.14683 11.4421 8.38398 11.5888 8.55873L11.8554 8.87623C12.0263 9.0797 12.2456 9.23008 12.4894 9.3171C12.3046 9.62082 11.9078 9.99053 11.0713 9.99053C10.8893 9.99053 10.7419 10.138 10.7419 10.3199C10.7419 10.5018 10.8893 10.6492 11.0713 10.6492C11.2275 10.6492 11.3744 10.6382 11.5129 10.6183V10.9727C11.5129 11.7852 12.1739 12.4462 12.9864 12.4462C13.7989 12.4462 14.4599 11.7852 14.4599 10.9727V10.6183C14.5983 10.6382 14.7452 10.6492 14.9015 10.6492C15.0834 10.6492 15.2308 10.5018 15.2308 10.3199C15.2307 10.1379 15.0833 9.99048 14.9014 9.99048ZM12.3599 8.4526L12.2008 8.26315H13.7718L13.6128 8.45256C13.457 8.63812 13.2286 8.74455 12.9863 8.74455C12.744 8.74463 12.5156 8.6382 12.3599 8.4526ZM13.8011 10.9727C13.8011 11.422 13.4356 11.7875 12.9863 11.7875C12.5371 11.7875 12.1715 11.4219 12.1715 10.9727V10.4306C12.5312 10.2681 12.7998 10.0294 12.9863 9.76264C13.1729 10.0294 13.4415 10.2682 13.8011 10.4306V10.9727ZM18.8077 8.86116L16.9683 8.63895C16.7881 8.61708 16.6236 8.74584 16.6018 8.9264C16.58 9.10695 16.7087 9.27106 16.8892 9.29285L18.7287 9.51506C18.7422 9.51668 18.7554 9.51748 18.7686 9.51748C18.9329 9.51748 19.075 9.39473 19.0952 9.22757C19.117 9.04698 18.9883 8.88295 18.8077 8.86116ZM19.4618 1.92099C19.2113 1.71548 18.8875 1.64352 18.5733 1.72362C17.9321 1.8871 17.3024 2.11077 16.7016 2.38853C16.4758 2.49296 16.3166 2.69242 16.2649 2.93579C16.2132 3.1792 16.2774 3.4262 16.4413 3.61343C17.0002 4.25213 17.6565 4.79063 18.3922 5.21397C18.5135 5.28375 18.6471 5.31898 18.7815 5.31898C18.8861 5.31898 18.9912 5.29765 19.0913 5.25458C19.3199 5.15628 19.4844 4.96116 19.5426 4.71926C19.5427 4.7188 19.5428 4.71838 19.5429 4.71792C19.6977 4.07492 19.794 3.41405 19.829 2.75361C19.8462 2.42998 19.7123 2.12655 19.4618 1.92099ZM18.9024 4.56483C18.9023 4.56512 18.9022 4.5655 18.9021 4.56579C18.8894 4.6175 18.8522 4.64037 18.8311 4.64947C18.81 4.65857 18.7675 4.66984 18.7208 4.64304C18.0482 4.25597 17.448 3.7636 16.937 3.17962C16.9016 3.13917 16.9044 3.09527 16.9092 3.07269C16.914 3.05011 16.9293 3.00887 16.9781 2.98633C17.5424 2.72552 18.1338 2.51537 18.7363 2.36178C18.7654 2.35431 18.7947 2.35068 18.8238 2.35068C18.9033 2.35068 18.9804 2.37801 19.044 2.43014C19.1309 2.50135 19.1772 2.60652 19.1713 2.71863C19.1384 3.33947 19.0479 3.96056 18.9024 4.56483ZM20.692 0.421462C20.2318 0.0438661 19.6368 -0.0883571 19.06 0.0587245C19.0589 0.0589749 19.0578 0.0593088 19.0567 0.0596009C17.7296 0.398131 16.4227 0.854567 15.1703 1.41693C14.4601 1.23784 13.726 1.1471 12.9864 1.1471C12.2468 1.1471 11.5127 1.23784 10.8026 1.41693C9.5502 0.854609 8.24329 0.398172 6.91617 0.0596427C6.91509 0.0593505 6.91392 0.0590166 6.91279 0.0587662C6.33594 -0.0882736 5.74102 0.043866 5.28074 0.421503C4.82047 0.799141 4.57451 1.35666 4.60606 1.95117C4.68048 3.35612 4.8809 4.76316 5.20174 6.13485C4.97122 6.69943 4.81212 7.28951 4.72848 7.89061C4.55957 9.10445 4.83044 10.2999 5.49461 11.3272C5.43551 11.3646 5.37766 11.4038 5.32123 11.4446C4.44362 11.2788 3.64131 10.818 3.05044 10.1359C2.42346 9.4123 2.07817 8.48728 2.07817 7.53129C2.07817 6.544 2.442 5.59694 3.10253 4.86463C3.4863 4.4392 3.45245 3.78096 3.02698 3.39711C2.82093 3.21125 2.55469 3.11688 2.27759 3.13095C2.00038 3.14522 1.7454 3.2666 1.55951 3.47265C0.55381 4.58753 0 6.02892 0 7.53133C0 8.86788 0.428306 10.1361 1.23859 11.1989C1.95204 12.1348 2.93687 12.8508 4.03798 13.2433C3.94086 13.5616 3.88881 13.8959 3.88881 14.2366V18.5129C3.88881 19.3329 4.5559 20 5.37586 20C6.19583 20 6.86287 19.3329 6.86287 18.5129V17.6446C7.01692 17.6656 7.17244 17.6761 7.32828 17.6761H8.47513V18.5129C8.47513 19.3329 9.14218 20 9.96219 20C10.7822 20 11.4492 19.333 11.4492 18.5129V17.6556C11.5763 17.6429 11.702 17.6236 11.8261 17.5989V18.5129C11.8261 19.3329 12.4931 20 13.3131 20C14.1331 20 14.8001 19.3329 14.8001 18.5129V14.9026C14.8943 14.5917 14.9496 14.2678 14.9639 13.9366H15.5325C17.2785 13.9366 18.9104 13.2123 20.0097 11.9495C21.0101 10.8002 21.4486 9.35875 21.2442 7.89061C21.1606 7.28955 21.0015 6.69947 20.771 6.13494C21.0918 4.76325 21.2921 3.35621 21.3666 1.95121C21.3982 1.35666 21.1523 0.799099 20.692 0.421462ZM4.28936 12.6338C3.29535 12.2865 2.40548 11.6431 1.76243 10.7996C1.0403 9.8525 0.658695 8.7223 0.658695 7.53129C0.658695 6.19216 1.15228 4.90749 2.04858 3.91386C2.11661 3.83848 2.20994 3.79403 2.3114 3.78881C2.41311 3.78359 2.51032 3.81819 2.58574 3.88622C2.74146 4.02675 2.75386 4.26774 2.61337 4.42342C1.84344 5.27695 1.4194 6.38073 1.4194 7.53125C1.4194 8.64567 1.82178 9.72391 2.55252 10.5672C3.13575 11.2404 3.89616 11.7288 4.73724 11.9799C4.56358 12.1803 4.41311 12.3998 4.28936 12.6338ZM14.1415 18.5129C14.1415 18.9697 13.7699 19.3413 13.3131 19.3413C12.8564 19.3413 12.4848 18.9697 12.4848 18.5129V17.4061C12.9903 17.2081 13.4534 16.9047 13.845 16.5068C13.9512 16.3989 14.0495 16.2853 14.1415 16.1677V18.5129ZM13.3755 16.0448C12.774 16.656 11.9709 17.0009 11.1141 17.0159C10.9345 17.0191 10.7905 17.1655 10.7905 17.3452V18.513C10.7905 18.9698 10.4189 19.3414 9.96219 19.3414C9.50541 19.3414 9.13379 18.9698 9.13379 18.513V17.3468C9.13379 17.1649 8.98637 17.0175 8.80444 17.0175H7.32824C7.08813 17.0175 6.84902 16.9865 6.6175 16.9255C6.51875 16.8994 6.41349 16.9207 6.33252 16.983C6.25159 17.0454 6.20422 17.1418 6.20422 17.2439V18.5129C6.20422 18.9697 5.83259 19.3413 5.37586 19.3413C4.91909 19.3413 4.54747 18.9697 4.54747 18.5129V14.2366C4.54747 13.2502 5.05428 12.3612 5.88597 11.8588C5.91131 11.8891 5.93677 11.9194 5.9629 11.9494C7.06221 13.2123 8.69409 13.9366 10.4401 13.9366H14.3047C14.2633 14.7309 13.9372 15.474 13.3755 16.0448ZM20.709 1.91636C20.6347 3.31747 20.4317 4.72055 20.1056 6.08669C20.0893 6.15522 20.0954 6.2273 20.123 6.29216C20.3536 6.8337 20.5114 7.40203 20.592 7.98147C20.7696 9.25804 20.3864 10.5137 19.5131 11.5171C18.5388 12.6362 17.088 13.2781 15.5326 13.2781H10.4401C8.88466 13.2781 7.43384 12.6362 6.45965 11.5171C5.58622 10.5137 5.20311 9.25808 5.38075 7.98143C5.46138 7.40203 5.61915 6.83366 5.84971 6.29212C5.87734 6.22726 5.88343 6.15522 5.86707 6.08665C5.54098 4.72055 5.33797 3.31743 5.26372 1.91632C5.24343 1.53325 5.40187 1.17402 5.69845 0.930738C5.91565 0.752562 6.17934 0.659196 6.45097 0.659196C6.5493 0.659196 6.64864 0.671467 6.74718 0.6963L6.75039 0.697135C8.07855 1.03575 9.38596 1.49586 10.6363 2.06465C10.7056 2.09616 10.7838 2.10267 10.8575 2.0831C11.5479 1.89912 12.2641 1.8058 12.9863 1.8058C13.7085 1.8058 14.4248 1.89912 15.1151 2.08314C15.1887 2.10272 15.2669 2.09629 15.3363 2.06469C16.5867 1.49586 17.8941 1.03575 19.2222 0.697135L19.2254 0.6963C19.5961 0.602726 19.9783 0.688036 20.2742 0.930738C20.5708 1.17402 20.7293 1.53325 20.709 1.91636ZM16.6124 7.12991V6.60502C16.6124 6.42313 16.465 6.27567 16.2831 6.27567C16.1011 6.27567 15.9537 6.42313 15.9537 6.60502V7.12991C15.9537 7.3118 16.1011 7.45925 16.2831 7.45925C16.465 7.45925 16.6124 7.31176 16.6124 7.12991ZM7.19122 5.31898C7.32557 5.31898 7.45921 5.28375 7.58042 5.21397C8.31616 4.79063 8.97252 4.25209 9.53142 3.61343C9.69524 3.4262 9.75955 3.1792 9.70784 2.93579C9.65613 2.69242 9.4969 2.49296 9.27106 2.38853C8.6703 2.11081 8.04065 1.8871 7.39924 1.72358C7.08516 1.64357 6.76158 1.71548 6.5109 1.92099C6.2604 2.12655 6.12655 2.42998 6.1437 2.75356C6.17872 3.41397 6.27492 4.07488 6.42973 4.71779C6.42981 4.7183 6.42993 4.71871 6.43002 4.71921C6.48828 4.96112 6.65281 5.15624 6.88136 5.25453C6.98145 5.29761 7.08658 5.31898 7.19122 5.31898ZM6.92865 2.43023C7.01551 2.35902 7.12761 2.33415 7.23659 2.36186C7.83885 2.51541 8.43035 2.72552 8.99455 2.98637C9.04334 3.00895 9.0587 3.05019 9.0635 3.07273C9.06826 3.09531 9.07106 3.13921 9.03562 3.17966C8.52464 3.76364 7.9245 4.25602 7.25182 4.64309C7.20524 4.66988 7.16271 4.65857 7.14155 4.64951C7.12047 4.64041 7.08329 4.6175 7.07052 4.56583C7.07043 4.56554 7.07035 4.56516 7.07026 4.56483C6.92473 3.96056 6.83424 3.33947 6.80135 2.71871C6.79547 2.60657 6.84184 2.50147 6.92865 2.43023ZM18.2139 10.8645L16.7566 9.7204C16.6135 9.60817 16.4065 9.63301 16.2942 9.77608C16.1819 9.91916 16.2068 10.1262 16.3498 10.2385L17.8072 11.3827C17.8676 11.43 17.9392 11.453 18.0104 11.453C18.1081 11.453 18.2047 11.4098 18.2696 11.327C18.3819 11.1839 18.357 10.9769 18.2139 10.8645ZM9.37086 8.9264C9.34903 8.74584 9.18538 8.617 9.00436 8.63895L7.16488 8.86116C6.98433 8.88299 6.85561 9.04702 6.8774 9.22761C6.8976 9.39477 7.03971 9.51752 7.20395 9.51752C7.21714 9.51752 7.23045 9.51673 7.24385 9.5151L9.08333 9.29289C9.26397 9.27106 9.39264 9.10704 9.37086 8.9264ZM9.68956 6.27572C9.50763 6.27572 9.36021 6.42317 9.36021 6.60506V7.12995C9.36021 7.31184 9.50763 7.4593 9.68956 7.4593C9.87149 7.4593 10.0189 7.31184 10.0189 7.12995V6.60506C10.0189 6.42313 9.87149 6.27572 9.68956 6.27572ZM9.21614 9.7204L7.75876 10.8645C7.61564 10.9769 7.59077 11.1839 7.70308 11.327C7.76802 11.4098 7.86473 11.453 7.96235 11.453C8.03347 11.453 8.10518 11.43 8.16549 11.3827L9.62286 10.2385C9.76598 10.1262 9.79086 9.9192 9.67854 9.77608C9.56623 9.63305 9.35917 9.60809 9.21614 9.7204Z" fill="black"/>
</svg>
