<svg width="25" height="20" viewBox="0 0 25 20" fill="none" xmlns="http://www.w3.org/2000/svg">
<path d="M2.6622 17.2837C1.84703 17.2837 1.23547 17.0462 0.844431 16.5777C0.533063 16.2046 0.381714 15.7078 0.381714 15.059C0.381714 14.6245 0.733978 14.2722 1.16847 14.2722C1.60296 14.2722 1.95517 14.6245 1.95517 15.059C1.95517 15.4017 2.01616 15.5259 2.05243 15.5695C2.12603 15.6577 2.35392 15.7103 2.66216 15.7103C3.09665 15.7103 3.44891 16.0626 3.44891 16.497C3.44901 16.9316 3.09674 17.2837 2.6622 17.2837Z" fill="#FF9E2D"/>
<path opacity="0.05" d="M2.66223 15.7103C2.354 15.7103 2.12611 15.6576 2.0525 15.5694C2.01618 15.5259 1.95525 15.4017 1.95525 15.0589C1.95525 14.8871 1.89947 14.7285 1.80597 14.5991C1.50231 15.3221 1.29923 16.0979 1.21411 16.9088C1.58507 17.1575 2.06955 17.2837 2.66228 17.2837C3.09677 17.2837 3.44903 16.9314 3.44903 16.4969C3.44903 16.0625 3.09677 15.7103 2.66223 15.7103Z" fill="black"/>
<path d="M15.1125 17.6807V16.5643C15.1125 16.0026 14.6572 15.5473 14.0955 15.5473C13.5338 15.5473 13.0785 16.0026 13.0785 16.5643V18.5492C13.0785 19.1396 13.5571 19.6182 14.1475 19.6182H15.5993C16 19.6182 16.3247 19.2934 16.3247 18.8928C16.3247 18.4922 16 18.1675 15.5993 18.1675C15.3305 18.1676 15.1125 17.9496 15.1125 17.6807Z" fill="#FF9E2D"/>
<path d="M10.9947 18.9581H2.91765C2.26491 18.9581 1.73572 18.4289 1.73572 17.7762C1.73572 13.2409 5.41226 9.56439 9.94752 9.56439H15.9231V14.0296C15.9232 16.7515 13.7166 18.9581 10.9947 18.9581Z" fill="#FFB136"/>
<path opacity="0.05" d="M9.94754 9.56439C8.29162 9.56439 6.75053 10.055 5.46069 10.8981C5.58406 12.6125 6.88357 14.0004 8.55694 14.2593C8.89041 14.3108 9.20511 14.4501 9.47269 14.6557C10.8267 15.6961 12.6128 16.3287 14.5706 16.3287C14.8413 16.3287 15.1089 16.3166 15.3724 16.293C15.7237 15.615 15.9233 14.8458 15.9233 14.0297V9.56444H9.94754V9.56439Z" fill="black"/>
<path d="M4.07907 12.2697C4.00079 12.2697 3.92348 12.2737 3.84679 12.2798C2.7071 13.5439 1.95469 15.1638 1.77661 16.953C2.3084 17.6416 3.14159 18.0856 4.07902 18.0856C5.68504 18.0856 6.98697 16.7837 6.98697 15.1777C6.98697 13.5716 5.68504 12.2697 4.07907 12.2697Z" fill="#FF6C00"/>
<path d="M5.72757 17.8172L5.87647 16.4216C5.95411 15.6937 5.38355 15.059 4.65142 15.059C3.11621 15.059 1.75122 16.0359 1.25585 17.4889C0.89978 18.5333 1.67618 19.6183 2.77964 19.6183H7.22121C7.39443 19.6183 7.53485 19.4779 7.53485 19.3047C7.53485 18.6767 7.02579 18.1676 6.3978 18.1676H6.04265C5.85431 18.1676 5.70758 18.0043 5.72757 17.8172Z" fill="#FF9E2D"/>
<path d="M10.972 17.6808V16.5644C10.972 16.0027 10.5167 15.5474 9.95499 15.5474C9.39329 15.5474 8.93799 16.0027 8.93799 16.5644V18.5493C8.93799 19.1397 9.41655 19.6182 10.007 19.6182H11.4588C11.8595 19.6182 12.1842 19.2935 12.1842 18.8929C12.1842 18.4923 11.8595 18.1675 11.4588 18.1675C11.19 18.1676 10.972 17.9497 10.972 17.6808Z" fill="#FF9E2D"/>
<path d="M15.1607 15.7385C19.3906 15.7385 22.8196 12.7864 22.8196 9.14477C22.8196 5.50318 19.3906 2.55109 15.1607 2.55109C10.9307 2.55109 7.50171 5.50318 7.50171 9.14477C7.50171 12.7864 10.9307 15.7385 15.1607 15.7385Z" fill="#FFB136"/>
<path d="M16.773 12.8515C16.773 13.7419 16.0511 14.4637 15.1608 14.4637C14.2704 14.4637 13.5486 13.7419 13.5486 12.8515V10.6998H16.773V12.8515H16.773Z" fill="#FF6C00"/>
<path opacity="0.15" d="M15.1608 13.0793C14.95 13.0793 14.7791 12.9084 14.7791 12.6975V10.9088C14.7791 10.698 14.95 10.5271 15.1608 10.5271C15.3716 10.5271 15.5425 10.698 15.5425 10.9088V12.6975C15.5425 12.9084 15.3716 13.0793 15.1608 13.0793Z" fill="black"/>
<path opacity="0.1" d="M22.7912 8.57753C22.7897 8.57667 22.7882 8.5757 22.7867 8.57484C22.783 8.52378 22.7785 8.47296 22.7738 8.42219C22.3556 5.12079 19.1069 2.55133 15.1607 2.55133C11.2146 2.55133 7.96609 5.1205 7.54764 8.42166C7.54296 8.47262 7.53844 8.52354 7.53473 8.57474C7.53314 8.57561 7.53169 8.57657 7.53015 8.57749C7.51161 8.76453 7.50159 8.95364 7.50159 9.14483C7.50159 11.4678 8.89725 13.51 11.0058 14.6845C12.3613 14.3992 13.5548 13.6748 14.4308 12.6666C14.8138 12.2259 15.5076 12.2259 15.8905 12.6666C16.7666 13.6748 17.9601 14.3991 19.3155 14.6845C21.4241 13.51 22.8197 11.4678 22.8197 9.14483C22.8197 8.95369 22.8098 8.76458 22.7912 8.57753Z" fill="black"/>
<path d="M22.7867 7.46929C22.5006 3.50724 19.1958 0.381714 15.1608 0.381714C11.1258 0.381714 7.82104 3.50724 7.53482 7.46929C6.64233 7.97911 6.04041 8.93927 6.04041 10.0407C6.04041 12.0692 7.68482 13.7136 9.71329 13.7136C11.5971 13.7136 13.2854 12.8796 14.431 11.5612C14.8139 11.1205 15.5077 11.1205 15.8906 11.5612C17.0362 12.8797 18.7245 13.7136 20.6083 13.7136C22.6368 13.7136 24.2812 12.0691 24.2812 10.0407C24.2812 8.93927 23.6792 7.97906 22.7867 7.46929Z" fill="#FFB136"/>
<path d="M14.0401 0.463379C10.5294 0.979082 7.7945 3.88053 7.53491 7.46829C8.39628 8.30606 9.57152 8.82282 10.8681 8.82282C13.5091 8.82282 15.6502 6.68178 15.6502 4.04069C15.6501 2.61704 15.0273 1.33944 14.0401 0.463379Z" fill="#FF6C00"/>
<path opacity="0.1" d="M11.16 1.5108C9.32522 2.63956 8.00389 4.5215 7.62561 6.72578C7.68428 6.73624 7.74367 6.7452 7.80451 6.75073C8.72744 6.83484 9.60562 6.3371 10.0075 5.50199L11.2668 2.8858C11.4942 2.41345 11.425 1.89669 11.16 1.5108Z" fill="black"/>
<path d="M7.6095 6.05265C6.25758 5.76417 5.60926 4.21484 6.35281 3.04947L6.84505 2.27809C7.63152 1.04552 9.10064 0.430737 10.5306 0.735843C11.4357 0.928955 11.8698 1.96629 11.3719 2.74644L9.86442 5.10906C9.3832 5.86315 8.48436 6.23926 7.6095 6.05265Z" fill="#FF9E2D"/>
<path d="M22.7119 6.05259C24.0638 5.7641 24.7122 4.21478 23.9686 3.04941L23.4764 2.27803C22.6899 1.04546 21.2208 0.430676 19.7908 0.735782C18.8857 0.928894 18.4517 1.96622 18.9495 2.74638L20.457 5.109C20.9382 5.86309 21.8371 6.2392 22.7119 6.05259Z" fill="#FF9E2D"/>
<path d="M16.6935 9.35425L16.3367 9.77915C15.723 10.51 14.5983 10.51 13.9847 9.77915L13.6279 9.35425C13.4441 9.13532 13.5997 8.80145 13.8856 8.80145H16.4358C16.7216 8.8014 16.8772 9.13532 16.6935 9.35425Z" fill="#FF6C00"/>
<path d="M23.1507 7.24489C23.122 6.95 23.0764 6.65597 23.0152 6.36556C23.6717 6.15646 24.2093 5.66975 24.4782 5.02722C24.777 4.31291 24.7068 3.49687 24.2904 2.84408L23.7982 2.07269C22.9307 0.713295 21.2882 0.0259634 19.7112 0.362524C19.3602 0.437428 19.0472 0.620183 18.8106 0.877505C17.686 0.303035 16.4315 0 15.1607 0C13.89 0 12.6355 0.303035 11.5109 0.877505C11.2743 0.620183 10.9613 0.437428 10.6103 0.362524C9.03314 0.0260598 7.39075 0.713247 6.52327 2.07269L6.03102 2.84408C5.61455 3.49677 5.54436 4.31286 5.84321 5.02712C6.11209 5.66965 6.64976 6.15636 7.30616 6.36546C7.24494 6.65588 7.19937 6.9499 7.17066 7.2448C6.23309 7.85968 5.65857 8.91291 5.65857 10.0406C5.65857 10.1354 5.66301 10.2291 5.66946 10.3223C4.62298 10.9248 3.70014 11.7538 2.98974 12.7323C2.62943 13.2285 2.32404 13.7645 2.0777 14.3262C1.86334 14.0606 1.53545 13.8904 1.16845 13.8904C0.524181 13.8905 0 14.4147 0 15.0589C0 15.8009 0.180395 16.3777 0.551349 16.8223C0.669268 16.9636 0.805347 17.0881 0.957418 17.1953C0.935356 17.2515 0.91421 17.3082 0.894557 17.3658C0.684586 17.9816 0.781358 18.6383 1.15997 19.1674C1.53863 19.6966 2.129 20 2.77967 20H7.22124C7.59277 20 7.89629 19.7069 7.91484 19.3399H8.79157C9.05067 19.7369 9.49855 20 10.007 20H11.4589C11.9953 20 12.4437 19.6164 12.5446 19.1092C12.6237 19.0851 12.702 19.0593 12.7795 19.0318C12.9789 19.5952 13.5166 20 14.1474 20H15.5992C16.2097 20 16.7063 19.5034 16.7063 18.8929C16.7063 18.2825 16.2097 17.7859 15.5992 17.7859C15.5413 17.7859 15.4941 17.7388 15.4941 17.6808V16.8523C15.6448 16.6117 15.7769 16.3576 15.8888 16.0917C17.7597 15.9478 19.4896 15.2501 20.8334 14.0887C22.9647 13.9713 24.6627 12.2007 24.6627 10.0407C24.6628 8.913 24.0883 7.85978 23.1507 7.24489ZM19.1962 1.66835C19.3175 1.37856 19.5632 1.17471 19.8705 1.10915C20.0851 1.06334 20.301 1.04114 20.5153 1.04114C21.5667 1.04114 22.5755 1.57592 23.1545 2.48333L23.6468 3.25472C23.9329 3.70318 23.9792 4.24176 23.7739 4.73247C23.5686 5.22317 23.1525 5.56826 22.6322 5.67924C21.917 5.83189 21.1722 5.52013 20.7788 4.90366L19.2712 2.54104C19.1023 2.27625 19.075 1.95814 19.1962 1.66835ZM6.54749 4.73247C6.3422 4.24176 6.38849 3.70318 6.67461 3.25477L7.16686 2.48338C7.86382 1.39104 9.18343 0.838632 10.4509 1.10915C10.7582 1.17471 11.0039 1.37852 11.1252 1.66835C11.2465 1.95814 11.2191 2.27625 11.0501 2.54114L9.54253 4.90376C9.14913 5.52028 8.40434 5.83189 7.68911 5.67934C7.16903 5.56826 6.75284 5.22317 6.54749 4.73247ZM1.30992 16.5043C1.24706 16.4521 1.18931 16.3951 1.13752 16.3331C0.88579 16.0315 0.763439 15.6147 0.763439 15.059C0.763439 14.8357 0.945135 14.654 1.1685 14.654C1.39186 14.654 1.57355 14.8357 1.57355 15.059C1.57355 15.2759 1.59485 15.4467 1.63839 15.5825C1.58054 15.8012 1.53179 16.0221 1.49171 16.2445C1.42784 16.3284 1.3672 16.415 1.30992 16.5043ZM2.77967 19.2365C2.37842 19.2365 2.0144 19.0494 1.78088 18.7231C1.54735 18.3968 1.48772 17.9918 1.61715 17.612C2.05992 16.3132 3.27929 15.4407 4.65144 15.4407C4.89581 15.4407 5.12038 15.5408 5.28367 15.7225C5.44706 15.9042 5.52274 16.1381 5.49682 16.3811L5.34793 17.7766V17.7767C5.32697 17.9735 5.3908 18.1707 5.52307 18.3178C5.65535 18.465 5.84465 18.5493 6.04249 18.5493H6.39769C6.79123 18.5493 7.11541 18.8519 7.14995 19.2365H2.77967ZM11.4589 19.2365H10.007C9.62803 19.2365 9.3197 18.9282 9.3197 18.5493V16.5644C9.3197 16.2141 9.60472 15.929 9.95501 15.929C10.3053 15.929 10.5903 16.2141 10.5903 16.5644V17.6808C10.5903 18.1597 10.9799 18.5493 11.4588 18.5493C11.6483 18.5493 11.8024 18.7034 11.8024 18.8929C11.8025 19.0824 11.6484 19.2365 11.4589 19.2365ZM12.4216 18.3473C12.231 18.0124 11.871 17.7858 11.4589 17.7858C11.401 17.7858 11.3538 17.7387 11.3538 17.6807V16.5643C11.3538 15.793 10.7263 15.1656 9.9551 15.1656C9.18381 15.1656 8.55636 15.793 8.55636 16.5643V18.5492C8.55636 18.5583 8.55689 18.5672 8.55708 18.5763H7.7302C7.47192 18.1056 6.97158 17.7858 6.39783 17.7858H6.11484L6.25602 16.462C6.30453 16.0075 6.15703 15.5519 5.85149 15.2119C5.54591 14.8721 5.10848 14.6771 4.65144 14.6771C3.8775 14.6771 3.14321 14.9019 2.52086 15.2981C3.09644 13.5846 4.26363 12.0959 5.80843 11.1297C6.26614 12.7684 7.7289 13.9918 9.48791 14.0886C10.9748 15.3737 12.9344 16.091 15.0346 16.1186C14.4899 17.1737 13.5539 17.9745 12.4216 18.3473ZM15.5993 18.5493C15.7888 18.5493 15.9429 18.7034 15.9429 18.8929C15.9429 19.0824 15.7887 19.2365 15.5993 19.2365H14.1474C13.8285 19.2365 13.5604 19.0178 13.4832 18.7227C13.9471 18.4772 14.3698 18.1647 14.7394 17.7972C14.7967 18.2211 15.16 18.5493 15.5993 18.5493ZM15.1607 15.3567C13.5016 15.3567 11.9373 14.8895 10.6609 14.0267C11.559 13.897 12.4172 13.5845 13.1844 13.1127C13.3129 14.0891 14.1498 14.8454 15.1607 14.8454C16.1716 14.8454 17.0086 14.0891 17.1369 13.1127C17.9041 13.5845 18.7624 13.897 19.6605 14.0267C18.3842 14.8894 16.8197 15.3567 15.1607 15.3567ZM13.9302 12.8515V12.58C14.2118 12.3478 14.476 12.0913 14.719 11.8116C14.829 11.685 14.99 11.6124 15.1606 11.6124C15.3314 11.6124 15.4923 11.685 15.6024 11.8116C15.8454 12.0913 16.1095 12.3477 16.3911 12.58V12.8515C16.3911 13.5301 15.8391 14.082 15.1606 14.082C14.4823 14.082 13.9302 13.53 13.9302 12.8515ZM20.6082 13.3318C18.9092 13.3318 17.2947 12.5952 16.1787 11.3108C15.9236 11.0173 15.5526 10.8489 15.1607 10.8489C14.7689 10.8489 14.3978 11.0173 14.1428 11.3108C13.0268 12.5952 11.4123 13.3318 9.71325 13.3318C7.89851 13.3318 6.42211 11.8554 6.42211 10.0407C6.42211 9.11782 6.921 8.25954 7.72413 7.80072C7.83459 7.73762 7.90636 7.62365 7.91551 7.49677C7.94012 7.15602 7.98945 6.81546 8.06219 6.48059C8.90872 6.47693 9.71989 6.04528 10.1863 5.3144L11.6938 2.95178C11.9627 2.5304 12.0313 2.01498 11.8891 1.54181C12.8986 1.03227 14.0223 0.763488 15.1608 0.763488C16.2993 0.763488 17.423 1.03227 18.4324 1.54181C18.2903 2.01498 18.3589 2.53049 18.6277 2.95178L20.1353 5.3144C20.6016 6.04533 21.4127 6.47693 22.2593 6.48059C22.332 6.81551 22.3814 7.15602 22.406 7.49682C22.4151 7.6237 22.4869 7.73767 22.5973 7.80077C23.4004 8.25954 23.8994 9.11787 23.8994 10.0407C23.8994 11.8554 22.423 13.3318 20.6082 13.3318ZM11.7939 5.96676C11.5831 5.96676 11.4122 6.13767 11.4122 6.34851V6.91696C11.4122 7.12779 11.5831 7.2987 11.7939 7.2987C12.0048 7.2987 12.1757 7.12779 12.1757 6.91696V6.34851C12.1756 6.13762 12.0047 5.96676 11.7939 5.96676ZM16.4358 8.4197H13.8856C13.6033 8.4197 13.3539 8.57866 13.2346 8.83449C13.1154 9.09037 13.1541 9.38357 13.3356 9.59966L13.6923 10.0246C14.0575 10.4595 14.5927 10.709 15.1607 10.709C15.7287 10.709 16.2638 10.4595 16.629 10.0246L16.9857 9.59966C17.1673 9.38353 17.206 9.09027 17.0867 8.83444C16.9675 8.57866 16.7181 8.4197 16.4358 8.4197ZM16.0444 9.53367C15.8247 9.79542 15.5026 9.94557 15.1607 9.94557C14.8189 9.94557 14.4968 9.79542 14.2771 9.53367L13.9828 9.18314H16.3388L16.0444 9.53367ZM18.5276 5.96676C18.3167 5.96676 18.1458 6.13767 18.1458 6.34851V6.91696C18.1458 7.12779 18.3167 7.2987 18.5276 7.2987C18.7383 7.2987 18.9093 7.12779 18.9093 6.91696V6.34851C18.9093 6.13762 18.7384 5.96676 18.5276 5.96676Z" fill="black"/>
</svg>
