<svg width="59" height="100" viewBox="0 0 59 100" fill="none" xmlns="http://www.w3.org/2000/svg">
<path d="M23.5571 75.134V89.321H34.7377V75.134C32.2117 76.1149 32.0155 76.1445 29.1472 76.1445C26.2792 76.1445 26.0831 76.1146 23.5571 75.134Z" fill="#3ACDD6"/>
<path d="M15.0757 89.321H43.2192C45.6117 89.321 47.5512 91.2605 47.5512 93.653C47.5512 96.0455 45.6117 97.985 43.2192 97.985H15.0757C12.6832 97.985 10.7437 96.0455 10.7437 93.653C10.7437 91.2605 12.6832 89.321 15.0757 89.321Z" fill="#54EFD7"/>
<path d="M29.1475 66.559C19.2423 66.559 11.2123 58.5294 11.2123 48.6241V19.9503C11.2123 10.045 19.242 2.01537 29.1472 2.01537C39.0525 2.01537 47.0821 10.045 47.0821 19.9503V48.6238C47.0824 58.5291 39.0527 66.559 29.1475 66.559Z" fill="#F9CC79"/>
<path d="M29.1475 2.01537C27.2754 2.01537 25.4707 2.30311 23.7741 2.83534C31.0539 5.11875 36.3357 11.9174 36.3357 19.9506V48.6241C36.3357 56.6573 31.0539 63.4559 23.7741 65.7393C25.4707 66.2713 27.2754 66.5593 29.1475 66.5593C39.0527 66.5593 47.0824 58.5296 47.0824 48.6244V19.9503C47.0824 10.045 39.0527 2.01537 29.1475 2.01537Z" fill="#FBB531"/>
<path d="M53.5973 30.1982H49.0977V19.9499C49.0977 8.94959 40.1478 0 29.1475 0C18.1472 0 9.1973 8.94959 9.1973 19.9499V30.1982H4.69765C2.10716 30.1982 0 32.3059 0 34.8962V48.6237C0 56.4293 3.05636 63.7667 8.6057 69.2846C12.2625 72.9202 16.7041 75.4674 21.542 76.7699V87.3057H15.0757C11.5761 87.3057 8.72874 90.1531 8.72874 93.6527C8.72874 97.1524 11.5761 100 15.0757 100H43.2192C46.7189 100 49.5662 97.1527 49.5662 93.653C49.5662 90.1533 46.7189 87.306 43.2192 87.306H36.7529V76.7495C49.1401 73.353 58.2952 61.8734 58.2952 48.3253V34.8964C58.295 32.3059 56.1878 30.1982 53.5973 30.1982ZM45.5362 93.653C45.5362 94.9305 44.4967 95.97 43.2192 95.97H15.0757C13.7982 95.97 12.7588 94.9305 12.7588 93.653C12.7588 92.3755 13.7982 91.336 15.0757 91.336H43.2192C44.4967 91.336 45.5362 92.3755 45.5362 93.653ZM32.7229 87.306H25.5723V77.555C26.7494 77.6984 27.9422 77.7715 29.1464 77.7715C29.2034 77.7715 29.2609 77.7712 29.3181 77.771C30.4701 77.7643 31.6058 77.6874 32.7232 77.5482V87.306H32.7229ZM54.265 48.3253C54.265 61.9537 43.0102 73.6617 29.2947 73.741C15.5819 73.8135 4.03001 62.3449 4.03001 48.624V34.8964C4.03001 34.5281 4.32958 34.2285 4.69765 34.2285H9.1973V48.624C9.1973 59.6243 18.1472 68.5739 29.1475 68.5739C31.5413 68.5739 33.8873 68.1516 36.1199 67.3187C38.5611 66.4077 37.1524 62.6326 34.7111 63.5426C32.9306 64.207 31.0588 64.5439 29.1475 64.5439C20.369 64.5439 13.2273 57.4022 13.2273 48.624V19.9502C13.2273 11.172 20.369 4.03029 29.1475 4.03029C37.9259 4.03029 45.0677 11.172 45.0677 19.9502V48.624C45.0677 51.9222 44.0639 55.0892 42.1644 57.7829C40.6631 59.9124 43.9567 62.2345 45.4583 60.1055C47.839 56.7289 49.0977 52.7585 49.0977 48.6243V34.2288H53.5973C53.9654 34.2288 54.265 34.5284 54.265 34.8967V48.3253Z" fill="black"/>
<path d="M29.3235 42.7994C26.0334 42.7994 26.028 47.9124 29.3235 47.9124C32.6133 47.9124 32.6189 42.7994 29.3235 42.7994Z" fill="black"/>
<path d="M29.3235 53.1759C26.0334 53.1759 26.028 58.289 29.3235 58.289C32.6133 58.2892 32.6189 53.1759 29.3235 53.1759Z" fill="black"/>
<path d="M37.2529 48.0713C33.9628 48.0713 33.9574 53.1843 37.2529 53.1843C40.543 53.1846 40.5484 48.0713 37.2529 48.0713Z" fill="black"/>
</svg>
