<svg width="22" height="20" viewBox="0 0 22 20" fill="none" xmlns="http://www.w3.org/2000/svg">
<path d="M17.669 3.27672H3.92073C3.78314 3.27672 3.65394 3.34309 3.57386 3.455L0.0796856 8.33721C-0.0390583 8.50309 -0.0236671 8.72983 0.116329 8.87822L10.4846 19.8659C10.653 20.0443 10.9367 20.0443 11.1051 19.8659L21.4734 8.87822C21.6134 8.72983 21.6288 8.50309 21.5101 8.33721L18.0159 3.455C17.9358 3.34309 17.8066 3.27672 17.669 3.27672Z" fill="#79FF79"/>
<path d="M21.5882 8.62294H14.0413C16.2278 8.19296 18.0402 6.72055 18.9389 4.74437L21.5101 8.33717C21.5711 8.42248 21.5967 8.52398 21.5882 8.62294Z" fill="#29E088"/>
<path d="M21.5882 8.62276C21.5805 8.70933 21.5464 8.79337 21.4875 8.86291C21.4829 8.86805 21.4781 8.87316 21.4735 8.87826L11.105 19.8661C11.1042 19.8669 11.1028 19.8682 11.102 19.8691C11.0546 19.9185 10.9984 19.954 10.9378 19.9753C10.9071 19.986 10.8751 19.9932 10.8426 19.9966C10.811 20.0009 10.7787 20.0009 10.7471 19.9966C10.7147 19.9932 10.6827 19.986 10.6519 19.9753C10.5914 19.954 10.5351 19.9186 10.4877 19.8691C10.4869 19.8682 10.4856 19.8669 10.4847 19.8661L0.116294 8.87826C0.111614 8.87316 0.106891 8.86801 0.10221 8.86291C0.0433445 8.79337 0.0092309 8.70938 0.0015564 8.62276H21.5882Z" fill="#0CC166"/>
<path d="M21.5882 8.62294C21.5805 8.70951 21.5464 8.79355 21.4875 8.86308C21.4829 8.86818 21.4781 8.87333 21.4735 8.87843L11.105 19.8662L11.102 19.8692C11.0546 19.9187 10.9984 19.9541 10.9378 19.9755C10.9071 19.9861 10.8751 19.9934 10.8426 19.9968C10.811 20.0011 10.7787 20.0011 10.7471 19.9968C10.7146 19.9934 10.6827 19.9861 10.6519 19.9755C10.5914 19.9541 10.5351 19.9187 10.4877 19.8692L10.4847 19.8662L7.81963 17.0417C12.109 16.3089 15.4911 12.9169 16.2102 8.62289H21.5882V8.62294Z" fill="#04A550"/>
<path d="M18.3213 8.62275L10.9378 19.9752C10.9071 19.9859 10.8751 19.9932 10.8426 19.9966C10.811 20.0008 10.7787 20.0008 10.7471 19.9966C10.7146 19.9932 10.6827 19.9859 10.6519 19.9752L3.26849 8.62275L5.90582 3.27683H15.684L18.3213 8.62275Z" fill="#C2FFC2"/>
<path d="M18.3213 8.62276L10.9378 19.9752C10.9071 19.9859 10.8751 19.9932 10.8426 19.9966C10.811 20.0008 10.7787 20.0008 10.7471 19.9966C10.7146 19.9932 10.6827 19.9859 10.6519 19.9752L3.26849 8.62276H18.3213Z" fill="#29E088"/>
<path d="M18.3213 8.62294L10.9378 19.9755C10.9071 19.9861 10.8751 19.9934 10.8426 19.9968C10.811 20.0011 10.7787 20.0011 10.7471 19.9968C10.7146 19.9934 10.6827 19.9861 10.6519 19.9755L8.6314 16.8689C12.5309 15.8713 15.5372 12.6423 16.2103 8.62294H18.3213Z" fill="#0CC166"/>
<path d="M13.5917 8.62275L10.8427 19.9966C10.8111 20.0009 10.7787 20.0009 10.7471 19.9966L7.99805 8.62275L8.97823 3.27683H12.6116L13.5917 8.62275Z" fill="#79FF79"/>
<path d="M13.5917 8.62276L10.8427 19.9966C10.8111 20.0009 10.7787 20.0009 10.7471 19.9966L7.99805 8.62276H13.5917Z" fill="#0CC166"/>
<path d="M10.2761 4.69123H4.85842C4.46782 4.69123 4.15114 4.37459 4.15114 3.98395C4.15114 3.59335 4.46777 3.27667 4.85842 3.27667H10.2761C10.6667 3.27667 10.9834 3.59331 10.9834 3.98395C10.9834 4.37455 10.6667 4.69123 10.2761 4.69123Z" fill="#C2FFC2"/>
<path d="M8.97823 3.27702L8.71886 4.69103H5.2084L5.90581 3.27702H8.97823Z" fill="#EEFFEE"/>
<path d="M11.9704 15.3313L10.8427 19.9968C10.8111 20.0011 10.7787 20.0011 10.7471 19.9968L9.89145 16.4573C10.6306 16.1617 11.3276 15.7825 11.9704 15.3313Z" fill="#04A550"/>
<path d="M18.3213 8.62296H14.043C15.3495 8.36531 16.5221 7.73575 17.446 6.84897L18.3213 8.62296Z" fill="#79FF79"/>
<path d="M19.7872 4.91672C19.9392 4.81661 19.9392 4.59431 19.7872 4.4942C19.395 4.23584 19.0227 3.93523 18.677 3.59215C18.3313 3.24908 18.0284 2.8796 17.7681 2.4904C17.6672 2.33961 17.4432 2.33961 17.3423 2.4904C17.082 2.8796 16.7791 3.24908 16.4334 3.59215C16.0876 3.93523 15.7154 4.23584 15.3232 4.4942C15.1712 4.59431 15.1712 4.81661 15.3232 4.91672C15.7154 5.17508 16.0877 5.47569 16.4334 5.81877C16.7791 6.16184 17.082 6.53132 17.3423 6.92052C17.4432 7.07131 17.6672 7.07131 17.7681 6.92052C18.0284 6.53132 18.3313 6.16184 18.677 5.81877C19.0227 5.47569 19.395 5.17508 19.7872 4.91672Z" fill="#29E088"/>
<path d="M19.7873 4.91654C19.3951 5.17494 19.0229 5.47543 18.6771 5.81863C18.3312 6.16187 18.0284 6.53126 17.7681 6.92043C17.6671 7.07101 17.4434 7.07101 17.3425 6.92043C17.0821 6.53126 16.7793 6.16187 16.4334 5.81863C16.3885 5.77397 16.3428 5.72995 16.2965 5.68656C16.3576 5.69166 16.4193 5.69419 16.4817 5.69419C17.6684 5.69419 18.6359 4.75892 18.6758 3.59079C18.6764 3.59142 18.6764 3.59142 18.6771 3.59205C19.023 3.9353 19.3952 4.23578 19.7873 4.49415C19.939 4.59434 19.939 4.81635 19.7873 4.91654Z" fill="#0CC166"/>
<path d="M20.1014 1.34026C20.1816 1.28743 20.1816 1.17012 20.1014 1.11728C19.8944 0.980913 19.6979 0.822278 19.5154 0.641169C19.333 0.460059 19.1731 0.265076 19.0357 0.0596777C18.9824 -0.0198926 18.8642 -0.0198926 18.811 0.0596777C18.6736 0.265118 18.5137 0.460101 18.3312 0.641169C18.1488 0.822236 17.9523 0.980913 17.7453 1.11728C17.6651 1.17012 17.6651 1.28743 17.7453 1.34026C17.9523 1.47663 18.1488 1.63527 18.3312 1.81638C18.5137 1.99749 18.6736 2.19247 18.811 2.39787C18.8642 2.47744 18.9824 2.47744 19.0357 2.39787C19.1731 2.19243 19.333 1.99745 19.5154 1.81638C19.6979 1.63531 19.8944 1.47659 20.1014 1.34026Z" fill="#79FF79"/>
<path d="M20.1014 1.34015C19.8945 1.47652 19.698 1.63511 19.5154 1.81626C19.3329 1.99741 19.1731 2.1924 19.0357 2.39779C18.9824 2.47728 18.8643 2.47728 18.811 2.39779C18.6736 2.1924 18.5138 1.99741 18.3312 1.81626C18.3075 1.79269 18.2834 1.76946 18.259 1.74656C18.2912 1.74926 18.3238 1.75061 18.3567 1.75061C18.983 1.75061 19.4937 1.25695 19.5147 0.640419C19.5151 0.640756 19.5151 0.640756 19.5154 0.641094C19.6979 0.822246 19.8944 0.980838 20.1014 1.11721C20.1815 1.17013 20.1815 1.28731 20.1014 1.34015Z" fill="#29E088"/>
</svg>
