<svg width="12" height="20" viewBox="0 0 12 20" fill="none" xmlns="http://www.w3.org/2000/svg">
<path d="M10.7195 6.03965H9.81954V3.98998C9.81954 1.78992 8.02956 0 5.8295 0C3.62943 0 1.83946 1.78992 1.83946 3.98998V6.03965H0.939531C0.421432 6.03965 0 6.46119 0 6.97923V9.72475C0 11.2859 0.611273 12.7533 1.72114 13.8569C2.45251 14.584 3.34083 15.0935 4.30841 15.354V17.4611H3.01515C2.31522 17.4611 1.74575 18.0306 1.74575 18.7305C1.74575 19.4305 2.31522 20 3.01515 20H8.64385C9.34378 20 9.91325 19.4305 9.91325 18.7306C9.91325 18.0307 9.34378 17.4612 8.64385 17.4612H7.35059V15.3499C9.82803 14.6706 11.659 12.3747 11.659 9.66505V6.97929C11.659 6.46119 11.2376 6.03965 10.7195 6.03965ZM9.10724 18.7306C9.10724 18.9861 8.89935 19.194 8.64385 19.194H3.01515C2.75965 19.194 2.55175 18.9861 2.55175 18.7306C2.55175 18.4751 2.75965 18.2672 3.01515 18.2672H8.64385C8.89935 18.2672 9.10724 18.4751 9.10724 18.7306ZM6.54458 17.4612H5.11446V15.511C5.34987 15.5397 5.58845 15.5543 5.82928 15.5543C5.84067 15.5543 5.85217 15.5542 5.86362 15.5542C6.09403 15.5528 6.32116 15.5375 6.54464 15.5096V17.4612H6.54458ZM10.853 9.66505C10.853 12.3907 8.60204 14.7323 5.85894 14.7482C3.11638 14.7627 0.806003 12.469 0.806003 9.7248V6.97929C0.806003 6.90562 0.865916 6.84571 0.939531 6.84571H1.83946V9.7248C1.83946 11.9249 3.62943 13.7148 5.8295 13.7148C6.30826 13.7148 6.77746 13.6303 7.22399 13.4637C7.71221 13.2815 7.43049 12.5265 6.94221 12.7085C6.58612 12.8414 6.21176 12.9088 5.8295 12.9088C4.07381 12.9088 2.64546 11.4804 2.64546 9.7248V3.99004C2.64546 2.2344 4.07381 0.806057 5.8295 0.806057C7.58519 0.806057 9.01353 2.2344 9.01353 3.99004V9.7248C9.01353 10.3844 8.81278 11.0178 8.43289 11.5566C8.13262 11.9825 8.79134 12.4469 9.09166 12.0211C9.56779 11.3458 9.81954 10.5517 9.81954 9.72486V6.84576H10.7195C10.7931 6.84576 10.853 6.90567 10.853 6.97934V9.66505Z" fill="black"/>
<path d="M5.86465 8.55988C5.20663 8.55988 5.20555 9.58248 5.86465 9.58248C6.52261 9.58248 6.52374 8.55988 5.86465 8.55988Z" fill="black"/>
<path d="M5.86465 10.6352C5.20663 10.6352 5.20555 11.6578 5.86465 11.6578C6.52261 11.6578 6.52374 10.6352 5.86465 10.6352Z" fill="black"/>
<path d="M7.45058 9.61426C6.79256 9.61426 6.79149 10.6369 7.45058 10.6369C8.1086 10.6369 8.10968 9.61426 7.45058 9.61426Z" fill="black"/>
</svg>
